<?xml version="1.0" encoding="UTF-8" standalone="no"?>
<!-- Created with Inkscape (http://www.inkscape.org/) -->

<svg
   xmlns:dc="http://purl.org/dc/elements/1.1/"
   xmlns:cc="http://creativecommons.org/ns#"
   xmlns:rdf="http://www.w3.org/1999/02/22-rdf-syntax-ns#"
   xmlns:svg="http://www.w3.org/2000/svg"
   xmlns="http://www.w3.org/2000/svg"
   xmlns:sodipodi="http://sodipodi.sourceforge.net/DTD/sodipodi-0.dtd"
   xmlns:inkscape="http://www.inkscape.org/namespaces/inkscape"
   width="124.48533mm"
   height="30.83231mm"
   viewBox="0 0 124.48533 30.83231"
   version="1.1"
   id="svg2414"
   inkscape:version="0.92.3 (2405546, 2018-03-11)"
   sodipodi:docname="logo-talend.svg">
  <defs
     id="defs2408">
    <clipPath
       id="clipPath2438"
       clipPathUnits="userSpaceOnUse">
      <path
         inkscape:connector-curvature="0"
         id="path2436"
         d="M 0,792 H 1224 V 0 H 0 Z" />
    </clipPath>
    <clipPath
       id="clipPath2454"
       clipPathUnits="userSpaceOnUse">
      <path
         inkscape:connector-curvature="0"
         id="path2452"
         d="m 99.892,561.46 h 338.592 v 81.398 H 99.892 Z" />
    </clipPath>
    <radialGradient
       id="radialGradient2538"
       spreadMethod="pad"
       gradientTransform="matrix(11.154049,-11.154049,-11.154049,-11.154049,165.71995,605.54691)"
       gradientUnits="userSpaceOnUse"
       r="1"
       cy="0"
       cx="0"
       fy="0"
       fx="0">
      <stop
         id="stop2532"
         offset="0"
         style="stop-opacity:1;stop-color:#b6bd00" />
      <stop
         id="stop2534"
         offset="0.37851141"
         style="stop-opacity:1;stop-color:#b6bd00" />
      <stop
         id="stop2536"
         offset="1"
         style="stop-opacity:1;stop-color:#7a701f" />
    </radialGradient>
    <clipPath
       id="clipPath2548"
       clipPathUnits="userSpaceOnUse">
      <path
         inkscape:connector-curvature="0"
         id="path2546"
         d="M 99.892,224.7 H 453.949 V 387.814 H 99.892 Z" />
    </clipPath>
    <clipPath
       id="clipPath2556"
       clipPathUnits="userSpaceOnUse">
      <path
         inkscape:connector-curvature="0"
         id="path2554"
         d="M 99.8922,387.814 H 263.005 V 224.7 H 99.8922 Z" />
    </clipPath>
    <clipPath
       id="clipPath2560"
       clipPathUnits="userSpaceOnUse">
      <path
         inkscape:connector-curvature="0"
         id="path2558"
         d="M 99.892,224.7 H 263.004 V 387.814 H 99.892 Z" />
    </clipPath>
    <clipPath
       id="clipPath2672"
       clipPathUnits="userSpaceOnUse">
      <path
         inkscape:connector-curvature="0"
         id="path2670"
         d="m 635.924,259.23 h 352.872 v 87.399 H 635.924 Z" />
    </clipPath>
  </defs>
  <sodipodi:namedview
     id="base"
     pagecolor="#ffffff"
     bordercolor="#666666"
     borderopacity="1.0"
     inkscape:pageopacity="0.0"
     inkscape:pageshadow="2"
     inkscape:zoom="0.35"
     inkscape:cx="19.06715"
     inkscape:cy="-81.890439"
     inkscape:document-units="mm"
     inkscape:current-layer="layer1"
     showgrid="false"
     fit-margin-top="0"
     fit-margin-left="0"
     fit-margin-right="0"
     fit-margin-bottom="0"
     inkscape:window-width="1920"
     inkscape:window-height="1001"
     inkscape:window-x="-9"
     inkscape:window-y="-9"
     inkscape:window-maximized="1" />
  <metadata
     id="metadata2411">
    <rdf:RDF>
      <cc:Work
         rdf:about="">
        <dc:format>image/svg+xml</dc:format>
        <dc:type
           rdf:resource="http://purl.org/dc/dcmitype/StillImage" />
        <dc:title></dc:title>
      </cc:Work>
    </rdf:RDF>
  </metadata>
  <g
     inkscape:label="Layer 1"
     inkscape:groupmode="layer"
     id="layer1"
     transform="translate(-38.590461,-75.858489)">
    <g
       id="g2666"
       transform="matrix(0.35277777,0,0,-0.35277777,-185.74939,198.14138)">
      <g
         id="g2668"
         clip-path="url(#clipPath2672)">
        <g
           id="g2674"
           transform="translate(693.9815,263.0142)">
          <path
             d="m 0,0 c -1.044,-1.385 -2.564,-2.28 -4.282,-2.52 -1.721,-0.24 -3.425,0.202 -4.809,1.246 -2.856,2.155 -3.426,6.234 -1.272,9.093 1.043,1.384 2.564,2.278 4.28,2.519 0.306,0.043 0.612,0.064 0.915,0.064 1.401,0 2.757,-0.452 3.895,-1.31 V 9.091 C 0.112,8.047 1.006,6.527 1.247,4.81 1.487,3.092 1.045,1.384 0,0 m -45.188,72.013 c -1.044,-1.384 -2.564,-2.279 -4.281,-2.52 -1.714,-0.239 -3.425,0.202 -4.81,1.247 -2.857,2.155 -3.428,6.233 -1.273,9.091 1.043,1.384 2.564,2.28 4.281,2.52 0.306,0.043 0.611,0.064 0.914,0.064 1.401,0 2.758,-0.453 3.896,-1.311 1.385,-1.044 2.279,-2.565 2.521,-4.282 0.24,-1.717 -0.203,-3.425 -1.248,-4.809 M 22.985,57.096 c -3.331,0 -6.403,-1.102 -8.874,-2.962 L -4.516,76.976 c 0.062,0.07 0.125,0.141 0.182,0.218 1.18,1.563 0.868,3.786 -0.696,4.966 -1.563,1.179 -3.786,0.867 -4.965,-0.696 -1.179,-1.564 -0.867,-3.787 0.695,-4.966 1.151,-0.869 2.66,-0.926 3.847,-0.273 L 13.184,53.373 C 11.822,52.165 10.688,50.71 9.847,49.078 l -52.95,24.327 c 0.395,1.136 0.522,2.357 0.351,3.583 -0.285,2.036 -1.346,3.837 -2.985,5.075 -1.641,1.237 -3.664,1.76 -5.7,1.476 -2.035,-0.285 -3.836,-1.345 -5.074,-2.985 -2.552,-3.387 -1.876,-8.219 1.509,-10.772 1.348,-1.017 2.956,-1.553 4.616,-1.553 0.359,0 0.721,0.025 1.083,0.076 2.035,0.285 3.837,1.345 5.073,2.985 0.245,0.324 0.453,0.666 0.641,1.017 L 9.339,47.991 C 8.684,46.415 8.295,44.702 8.225,42.907 h -44.954 c -0.154,1.224 -0.784,2.387 -1.854,3.189 -2.099,1.572 -5.083,1.156 -6.665,-0.927 -1.583,-2.086 -1.164,-5.05 0.933,-6.621 2.098,-1.574 5.083,-1.158 6.666,0.927 0.514,0.676 0.813,1.447 0.916,2.232 H 8.226 C 8.305,39.772 8.758,37.934 9.512,36.26 L -1.889,30.621 c -0.487,0.669 -1.207,1.174 -2.077,1.372 -1.909,0.434 -3.809,-0.764 -4.243,-2.672 -0.433,-1.909 0.763,-3.81 2.672,-4.242 1.91,-0.434 3.809,0.761 4.243,2.672 0.14,0.616 0.108,1.23 -0.061,1.795 l 11.401,5.64 c 0.971,-1.756 2.291,-3.292 3.864,-4.519 L -0.896,10.286 c -1.575,1.061 -3.456,1.507 -5.353,1.241 -2.035,-0.285 -3.836,-1.346 -5.073,-2.987 -2.552,-3.386 -1.875,-8.218 1.508,-10.771 1.349,-1.018 2.956,-1.554 4.616,-1.554 0.36,0 0.721,0.025 1.083,0.076 2.034,0.285 3.836,1.346 5.073,2.986 C 2.195,0.917 2.72,2.941 2.435,4.976 2.186,6.751 1.348,8.347 0.05,9.547 l 14.834,20.42 c 2.327,-1.528 5.109,-2.42 8.101,-2.42 8.159,0 14.774,6.615 14.774,14.775 0,8.159 -6.615,14.774 -14.774,14.774"
             style="fill:#82bd41;fill-opacity:1;fill-rule:nonzero;stroke:none"
             id="path2676"
             inkscape:connector-curvature="0" />
        </g>
        <g
           id="g2678"
           transform="translate(936.2749,275.0892)">
          <path
             d="m 0,0 c 0.026,0.353 0.065,0.617 0.065,0.883 0.002,10.62 0.013,21.239 -0.005,31.858 -0.005,2.84 -0.506,5.599 -1.681,8.203 -2.96,6.563 -9.482,8.444 -15.936,7.477 -4.893,-0.732 -9.035,-3.165 -12.91,-6.105 -0.337,-0.255 -0.676,-0.507 -1.157,-0.866 v 6.003 h -9.36 V 0.019 h 10.27 V 1.4 c 0,10.484 -0.005,20.967 0.016,31.449 0.001,0.429 0.108,1.02 0.397,1.258 3.294,2.743 6.846,5.026 11.253,5.451 3.821,0.369 6.9,-1.123 7.976,-5.025 0.445,-1.615 0.748,-3.326 0.762,-4.996 0.076,-9.431 0.045,-18.862 0.05,-28.294 V 0 Z"
             style="fill:#0675c1;fill-opacity:1;fill-rule:nonzero;stroke:none"
             id="path2680"
             inkscape:connector-curvature="0" />
        </g>
        <g
           id="g2682"
           transform="translate(748.237,333.5458)">
          <path
             d="m 0,0 v -1.328 c 0,-15.101 -0.005,-30.204 0.009,-45.307 0,-1.115 0.028,-2.246 0.205,-3.345 0.69,-4.258 2.937,-7.329 7.11,-8.73 4.423,-1.487 8.841,-0.925 13.188,0.398 1.593,0.486 3.109,1.23 4.383,1.745 -0.995,2.667 -1.896,5.076 -2.808,7.516 -0.382,-0.195 -0.887,-0.465 -1.401,-0.712 -1.862,-0.897 -3.814,-1.377 -5.894,-1.305 -2.16,0.074 -3.59,1.157 -4.083,3.271 -0.227,0.98 -0.361,2.007 -0.366,3.015 -0.028,8.111 -0.016,16.223 -0.012,24.333 0,0.395 0.037,0.788 0.062,1.256 h 1.227 c 3.156,0 6.313,0.023 9.468,-0.015 0.72,-0.01 1.065,0.176 1.275,0.904 0.619,2.144 1.329,4.265 1.998,6.396 0.086,0.277 0.141,0.564 0.237,0.959 h -1.235 c -4.004,0 -8.008,0.02 -12.013,-0.019 -0.813,-0.008 -1.043,0.242 -1.037,1.034 0.033,3.937 0.014,7.874 0.014,11.813 V 3.185 C 6.79,2.096 3.436,1.06 0,0"
             style="fill:#0675c1;fill-opacity:1;fill-rule:nonzero;stroke:none"
             id="path2684"
             inkscape:connector-curvature="0" />
        </g>
        <g
           id="g2686"
           transform="translate(835.3372,346.1537)">
          <path
             d="m 0,0 c -0.527,-0.166 -0.883,-0.262 -1.229,-0.388 -2.638,-0.964 -5.261,-1.975 -7.918,-2.884 -0.9,-0.306 -1.226,-0.713 -1.223,-1.707 0.037,-15.878 0.025,-31.757 0.027,-47.635 0,-3.188 -0.038,-6.379 0.011,-9.566 0.082,-5.127 2.823,-8.431 7.84,-9.392 3.143,-0.602 6.289,-0.239 9.39,0.38 1.73,0.347 3.411,0.936 5.106,1.413 -0.084,0.344 -0.08,0.425 -0.117,0.468 -1.86,2.031 -3.646,4.108 -4.664,6.73 -0.073,0.19 -0.617,0.31 -0.918,0.274 -0.803,-0.098 -1.59,-0.332 -2.391,-0.456 -1.957,-0.302 -3.413,0.742 -3.739,2.69 -0.111,0.666 -0.168,1.347 -0.168,2.021 C -0.001,-39.188 0,-20.324 0,-1.46 Z"
             style="fill:#0675c1;fill-opacity:1;fill-rule:nonzero;stroke:none"
             id="path2688"
             inkscape:connector-curvature="0" />
        </g>
        <g
           id="g2690"
           transform="translate(976.0618,300.4966)">
          <path
             d="m 0,0 c 0,4.204 -0.028,8.409 0.022,12.613 0.011,0.942 -0.314,1.291 -1.209,1.456 -2.445,0.451 -4.884,0.718 -7.37,0.399 -4.232,-0.546 -7.733,-2.362 -10.293,-5.838 -2.012,-2.736 -2.838,-5.878 -3.111,-9.207 -0.327,-4.018 0,-7.932 1.997,-11.536 2.255,-4.07 5.598,-6.366 10.401,-6.096 3.397,0.19 6.199,1.755 8.764,3.871 0.575,0.474 0.822,0.966 0.816,1.725 C -0.018,-8.41 0,-4.205 0,0 m 12.734,-25.385 c -0.345,-0.034 -0.558,-0.075 -0.772,-0.075 -2.918,-0.003 -5.837,0.018 -8.755,-0.018 -0.658,-0.008 -0.956,0.209 -1.15,0.831 -0.403,1.28 -0.892,2.534 -1.397,3.945 -0.398,-0.33 -0.674,-0.556 -0.945,-0.789 -3.821,-3.286 -8.184,-5.148 -13.284,-4.983 -7.294,0.239 -12.484,3.891 -15.887,10.156 -2.536,4.67 -3.309,9.761 -3.152,15.038 0.153,5.109 1.46,9.846 4.391,14.054 4.063,5.834 9.762,9.064 16.719,10.144 3.51,0.546 7.026,0.429 10.527,-0.18 C -0.71,22.693 -0.44,22.693 0,22.658 v 1.333 c 0,5.633 0.014,11.267 -0.017,16.9 -0.003,0.76 0.208,1.137 0.951,1.396 3.093,1.082 6.164,2.232 9.409,3.417 v -1.296 c 0,-17.985 0.006,-35.97 -0.003,-53.956 -10e-4,-5.361 -0.132,-10.737 2.394,-15.837"
             style="fill:#0675c1;fill-opacity:1;fill-rule:nonzero;stroke:none"
             id="path2692"
             inkscape:connector-curvature="0" />
        </g>
        <g
           id="g2694"
           transform="translate(806.0544,292.822)">
          <path
             d="M 0,0 V 4.809 C -2.762,4.693 -5.339,4.648 -7.904,4.456 -9.551,4.332 -11.213,4.115 -12.809,3.71 c -2.176,-0.555 -4.016,-1.705 -4.869,-3.933 -1.604,-4.18 0.005,-10.118 6.784,-10.363 4.116,-0.149 7.478,1.612 10.472,4.23 0.255,0.223 0.394,0.7 0.403,1.063 C 0.023,-3.53 0,-1.763 0,0 M 12.617,-17.788 H 4.79 c -2.409,0 -2.407,0 -3.232,2.312 -0.272,0.763 -0.555,1.521 -0.881,2.414 -0.321,-0.251 -0.586,-0.437 -0.829,-0.649 -4.11,-3.613 -8.861,-5.326 -14.365,-5.103 -7.985,0.325 -14.075,6.444 -14.195,14.407 -0.117,7.841 4.116,13.099 12.132,15.032 3.751,0.903 7.583,0.991 11.414,1.076 1.455,0.032 2.913,0.13 4.37,0.16 0.537,0.011 0.843,0.142 0.797,0.743 -0.101,1.316 -0.032,2.665 -0.303,3.942 -0.763,3.59 -3.456,5.8 -7.258,6.2 -4.844,0.511 -9.343,-0.623 -13.636,-2.788 -0.329,-0.167 -0.66,-0.33 -1.125,-0.56 -1.207,2.303 -2.366,4.518 -3.638,6.949 1.969,0.859 3.833,1.817 5.794,2.503 6.407,2.242 12.961,2.864 19.592,1.151 6.204,-1.604 10.005,-6.134 10.683,-12.5 0.142,-1.344 0.218,-2.703 0.224,-4.056 0.023,-5.905 0.008,-11.808 0.012,-17.713 0,-4.498 0.273,-8.948 2.213,-13.12 0.04,-0.086 0.029,-0.195 0.058,-0.4"
             style="fill:#0675c1;fill-opacity:1;fill-rule:nonzero;stroke:none"
             id="path2696"
             inkscape:connector-curvature="0" />
        </g>
        <g
           id="g2698"
           transform="translate(874.8329,312.1778)">
          <path
             d="M 0,0 C -1.87,2.494 -4.455,3.622 -7.508,3.53 -13.27,3.357 -18.139,-2.593 -17.351,-8.456 H 2.677 C 2.51,-5.337 1.855,-2.474 0,0 m 13.238,-15.361 c -0.003,-0.161 -0.046,-0.322 -0.089,-0.598 h -30.455 c -0.107,-1.862 0.286,-3.594 0.905,-5.267 1.917,-5.181 6.507,-8.431 12.038,-8.669 4.335,-0.189 8.412,0.703 12.265,2.678 0.268,0.137 0.539,0.265 0.956,0.469 1.028,-2.345 2.039,-4.65 3.147,-7.177 -1.681,-0.779 -3.252,-1.642 -4.917,-2.254 -5.965,-2.196 -12.082,-2.664 -18.282,-1.189 -7.284,1.735 -12.317,6.189 -14.825,13.198 -3.034,8.474 -2.728,16.931 1.272,25.063 3.602,7.328 11.045,11.214 19.142,10.656 9.469,-0.651 15.512,-6.645 17.786,-15.609 0.942,-3.714 1.131,-7.494 1.057,-11.301"
             style="fill:#0675c1;fill-opacity:1;fill-rule:nonzero;stroke:none"
             id="path2700"
             inkscape:connector-curvature="0" />
        </g>
      </g>
    </g>
  </g>
</svg>
